<svg width="150" height="32" viewBox="0 0 150 32" fill="none" xmlns="http://www.w3.org/2000/svg">
<g clip-path="url(#clip0)">
<path fill-rule="evenodd" clip-rule="evenodd" d="M8.00252 0.0208664H5.54697L0 32.0011H2.45555L8.00252 0.0208664ZM16.948 32.0011H19.4035L24.9507 0.0208664H22.4949L16.948 32.0011Z" fill="#BB0022"/>
<path opacity="0.25" fill-rule="evenodd" clip-rule="evenodd" d="M30.153 18.0315C30.3188 18.4135 30.5612 18.7575 30.8654 19.042C31.174 19.3254 31.5353 19.5453 31.9288 19.6892C32.3493 19.8448 32.7964 19.9157 33.2444 19.8977C33.7035 19.9024 34.1587 19.8127 34.5817 19.6341C34.9811 19.4651 35.3455 19.223 35.6561 18.9203C35.9663 18.6153 36.209 18.2487 36.3687 17.8441C36.5388 17.4143 36.6243 16.9556 36.6204 16.4933C36.6265 16.0404 36.5368 15.5913 36.3574 15.1754C36.1884 14.7891 35.9422 14.4415 35.6338 14.1541C35.3254 13.8676 34.9642 13.6438 34.5704 13.4952C34.1539 13.3391 33.7104 13.2682 33.266 13.2865C32.8034 13.2827 32.3448 13.3723 31.9177 13.55C31.5143 13.7167 31.1489 13.9633 30.8433 14.2749C30.5402 14.5876 30.302 14.9571 30.1422 15.3621C29.9718 15.7919 29.8863 16.2507 29.8905 16.713C29.884 17.1661 29.9735 17.6154 30.153 18.0315Z" fill="#BB0022"/>
<path fill-rule="evenodd" clip-rule="evenodd" d="M46.7984 0.0208541L41.2514 32.0011H46.7765L48.3765 22.7761L50.7006 7.95002L52.0379 21.4582H55.0416L61.2903 8.05986L58.5721 22.2921L56.884 32H62.409L67.956 0.0197761H60.4138L55.0206 11.9464L54.1875 0.0197761H46.7987L46.7984 0.0208541ZM84.8164 32.0011H90.9773L86.5483 0.0208541H81.0891L65.4127 32.0011H71.9245L74.9062 25.3239H84.1805L84.8164 32.0011ZM82.558 8.36728L83.6762 20.0744H77.296L82.558 8.36728ZM115.739 32.0011L121.264 0.0208541L110.938 -0.0010774C109.416 -0.00436709 107.9 0.176298 106.421 0.536989C105.02 0.869673 103.688 1.44585 102.486 2.23928C101.326 3.01342 100.346 4.02853 99.6135 5.21546C98.8606 6.42343 98.4185 7.88404 98.2871 9.5973C98.137 11.1237 98.3823 12.663 98.9996 14.0671C99.606 15.407 100.596 16.5382 101.971 17.4607L92.5427 32.0011H99.2518L107.276 19.4157H111.88L109.687 32.0013H115.739V32.0011ZM104.941 7.71937C105.313 7.11322 105.806 6.58993 106.388 6.18193C106.985 5.77016 107.649 5.46539 108.351 5.28126C109.109 5.0801 109.89 4.98042 110.675 4.98481L114.38 5.02867L112.692 14.693L108.416 14.6711C106.911 14.6272 105.782 14.2172 105.029 13.4411C104.276 12.6649 104.002 11.5008 104.207 9.94876C104.284 9.16046 104.535 8.39904 104.941 7.71937ZM137.786 32.0011H144.429L137.808 15.6814L149.933 0.0208541H142.653L132.086 14.1221L130.704 14.144L133.292 0.0208541H127.263L121.738 32.0011H127.745L130.026 18.8663H132.635L137.786 32.0011Z" fill="#BB0022"/>
</g>
<defs>
<clipPath id="clip0">
<rect width="149.933" height="32" fill="white"/>
</clipPath>
</defs>
</svg>
